<?xml version="1.0"?>
<svg version="1.1" xmlns="http://www.w3.org/2000/svg" width="218" height="45" style=""><path fill="#000000" d="M17.73,33.84l0-1.26l2.1-0.42l0-11.34l-2.73,0l-0.525,2.1l-1.365,0l0-3.78l11.445,0l0,3.78l-1.365,0l-0.525-2.1l-2.73,0l0,11.34l2.1,0.42l0,1.26l-6.405,0z M32.6106,22.71l0.189,1.533c0.525-0.588,1.743-1.743,3.171-1.743c1.05,0,1.89,0.315,1.89,0.315l-0.105,3.045l-1.365,0l-0.315-1.575c-1.575,0-2.583,1.029-3.045,1.638l0,6.237l2.1,0.525l0,1.155l-5.985,0l0-1.155l1.785-0.525l0-7.77l-1.785-0.42l0-1.155z M41.7162,19.245c0-0.945,0.63-1.47,1.365-1.47c0.84,0,1.365,0.42,1.365,1.47c0,0.945-0.735,1.47-1.365,1.47c-0.84,0-1.365-0.525-1.365-1.47z M45.8112,32.685l0,1.155l-5.46,0l0-1.155l1.785-0.525l0-7.77l-1.785-0.42l0-1.155l3.885-0.105l0,9.45z M51.3468,24.18l2.499,7.77l2.52-7.665l-1.449-0.315l0-1.155l4.704-0.105l0,1.26l-1.155,0.21l-3.57,9.66l-2.31,0l-3.444-9.555l-1.05-0.315l0-1.155l4.725-0.105l0,1.26z M63.3714,19.245c0-0.945,0.63-1.47,1.365-1.47c0.84,0,1.365,0.42,1.365,1.47c0,0.945-0.735,1.47-1.365,1.47c-0.84,0-1.365-0.525-1.365-1.47z M67.4664,32.685l0,1.155l-5.46,0l0-1.155l1.785-0.525l0-7.77l-1.785-0.42l0-1.155l3.885-0.105l0,9.45z M71.322,25.965l-0.105-2.625s2.31-0.84,4.095-0.84c2.436,0,3.885,0.84,3.885,3.255l0,6.405l1.68,0.42l0,1.155l-3.255,0.105l-0.441-1.47c-0.714,0.714-1.974,1.68-3.444,1.68c-1.995,0-3.15-1.155-3.15-3.15c0-2.415,1.89-3.255,4.83-3.255l1.68,0l0-1.68c0-1.26-0.735-1.89-1.995-1.89s-2.121,0.315-2.121,0.315l-0.294,1.575l-1.365,0z M77.097,29.01l-1.47,0c-2.1,0-2.898,0.525-2.898,1.785c0,0.945,0.588,1.575,1.533,1.575c1.575,0,2.835-1.68,2.835-1.68l0-1.68z M102.5532,28.296l0,4.494s-2.226,1.26-5.355,1.26c-4.2,0-6.72-2.52-6.72-7.245c0-4.83,2.73-7.875,7.035-7.875c2.31,0,4.725,1.05,4.725,1.05l-0.105,3.465l-1.365,0l-0.63-2.31s-1.26-0.42-2.835-0.42c-2.835,0-4.41,2.1-4.41,5.985c0,3.78,1.89,5.565,4.62,5.565c1.47,0,2.94-0.525,2.94-0.525l0-3.444l-1.785-0.42l0-1.155l5.46-0.105l0,1.26z M108.0888,25.965l-0.105-2.625s2.31-0.84,4.095-0.84c2.436,0,3.885,0.84,3.885,3.255l0,6.405l1.68,0.42l0,1.155l-3.255,0.105l-0.441-1.47c-0.714,0.714-1.974,1.68-3.444,1.68c-1.995,0-3.15-1.155-3.15-3.15c0-2.415,1.89-3.255,4.83-3.255l1.68,0l0-1.68c0-1.26-0.735-1.89-1.995-1.89s-2.121,0.315-2.121,0.315l-0.294,1.575l-1.365,0z M113.8638,29.01l-1.47,0c-2.1,0-2.898,0.525-2.898,1.785c0,0.945,0.588,1.575,1.533,1.575c1.575,0,2.835-1.68,2.835-1.68l0-1.68z M127.3794,22.815l0,1.575l-3.045,0l0,6.741c0,0.966,0.462,1.281,1.05,1.281c0.504,0,1.092-0.231,1.638-0.525l0.567,1.113c-0.945,0.693-1.89,1.05-2.94,1.05c-1.26,0-2.415-0.693-2.415-3.045l0-6.615l-2.1,0l0-1.365l2.1-0.21l0-2.646l2.1-0.42l0,3.066l3.045,0z M139.74,28.59l-7.245,0c0,2.31,1.239,3.78,3.045,3.78c2.1,0,3.528-1.155,3.528-1.155l0.735,1.092s-1.953,1.743-4.473,1.743c-3.36,0-5.04-2.205-5.04-5.67c0-3.36,2.1-5.88,5.145-5.88s4.41,1.785,4.41,4.935c0,0.525-0.105,1.113-0.105,1.155z M132.579,27.015l5.04,0c0-1.575-0.609-2.877-2.289-2.877s-2.625,1.302-2.751,2.877z"/><path fill="#" d=""/></svg>
