<?xml version="1.0"?>
<svg version="1.1" xmlns="http://www.w3.org/2000/svg" width="273" height="73" style=""><path fill="#071254" d="M16.4,60.5l0-3.4l3-1.2l0-18.8l-3-1.2l0-3.4l9.2-0.2l3.04,0c6.56,0,10.4,2.72,10.4,8.16c0,3.76-1.8,6.2-4.52,7.56c0.44,0.52,1.04,1.28,1.68,2.6l2.68,5.48l2.72,1l0,3.4l-7.4,0l-3.36-7.4c-1.36-3.04-1.72-3.68-3.84-3.68l-1.4,0l0,6.48l2.88,1.2l0,3.4l-12.08,0z M25.6,45.22l2.28,0c3.16,0,5-1.52,5-4.2c0-2.28-1.52-3.92-4-3.92l-3.28,0l0,8.12z M59.8204,60.5l-0.72-2.6s-3.08,3-6.48,3c-3.88,0-6.24-2.28-6.24-6.28c0-4.72,3.56-6.6,9.64-6.6l2.8,0l0-2.2c0-2.04-1.08-2.92-3.08-2.92c-2.04,0-3.52,0.6-3.52,0.6l-0.6,2.52l-3.6,0l-0.28-5.92s4.84-1.6,8.68-1.6c6.08,0,8.4,2.12,8.4,7.92l0,9.88l3,0.72l0,3.2z M58.8204,51.42l-2.28,0c-3.12,0-4.36,0.8-4.36,2.6c0,1.52,0.84,2.4,2.36,2.4c2.12,0,4.28-2.32,4.28-2.32l0-2.68z M81.6008,29.5l0,11.72c1.16-0.96,3.76-2.72,6.72-2.72c4.08,0,6.28,2.72,6.28,7.2l0,10.6l2.8,1l0,3.2l-10.88,0l0-3.2l2.08-0.96l0-9.68c0-2-0.8-3.2-2.64-3.2c-2.24,0-4.36,2.12-4.36,2.12l0,10.72l2.12,1l0,3.2l-11.32,0l0-3.2l3.2-1l0-22.48l-3.2-0.8l0-3.2z M101.7812,42.3l0-3.2l9.2-0.2l0,13.8c0,2.2,0.64,3.2,2.44,3.2c2.6,0,4.52-2.16,4.52-2.16l0-10.44l-3.2-1l0-3.2l9.2-0.2l0,17.4l3.2,0.8l0,3.12l-8.44,0.28l-0.4-2.8s-3.2,3.2-7,3.2c-4,0-6.32-2.68-6.32-7.16l0-10.44z M140.7616,56.3l3.6,1l0,3.2l-12.84,0l0-3.2l3.2-1l0-22.48l-3.2-0.8l0-3.2l9.24-0.32l0,26.8z"/><path fill="#1791e8" d="M153.2355546875,46.8271484375q0-3.1787109375,0.28564453125-6.36474609375t1.19384765625-6.27685546875q0.263671875-0.9228515625,0.6884765625-1.82373046875t1.0400390625-1.60400390625t1.46484375-1.142578125t2.021484375-0.439453125l0.3076171875,0.029296875q1.259765625,0.17578125,1.8603515625,1.01806640625t0.6005859375,2.10205078125q0,0.3369140625-0.08056640625,0.84228515625t-0.25634765625,0.97412109375t-0.47607421875,0.79833984375t-0.75439453125,0.32958984375q-0.205078125-0.029296875-0.37353515625-0.0732421875t-0.31494140625-0.1904296875q0.234375-0.5126953125,0.41748046875-1.0693359375t0.18310546875-1.2744140625q0-0.263671875-0.0439453125-0.673828125t-0.16845703125-0.81298828125t-0.32958984375-0.703125t-0.5712890625-0.30029296875q-0.9228515625,0-1.552734375,1.03271484375t-1.0546875,2.63671875t-0.6298828125,3.544921875t-0.31494140625,3.75t-0.12451171875,3.2666015625t-0.0146484375,2.05810546875q0,0.703125-0.0146484375,1.552734375l0,0.1904296875q0.0146484375,0.7470703125,0.1025390625,1.4208984375q0.1171875,0.76171875,0.4541015625,1.318359375t1.0546875,0.64453125q0.2197265625,0.029296875,0.4248046875,0.029296875q0.849609375,0,1.5380859375-0.4833984375q0.849609375-0.6005859375,1.5087890625-1.56005859375t1.171875-2.109375t0.94482421875-2.17529296875t0.84228515625-1.69921875t0.849609375-0.673828125q0.146484375,0,0.439453125,0.05859375t0.29296875,0.2783203125q0,0.05859375-0.029296875,0.1611328125t-0.0732421875,0.1611328125q-0.3955078125,1.552734375-1.00341796875,3.22265625t-1.552734375,3.03955078125t-2.314453125,2.23388671875t-3.28857421875,0.8642578125q-1.376953125,0-2.23388671875-0.52001953125t-1.318359375-1.3916015625t-0.6298828125-1.97021484375t-0.16845703125-2.2265625z M168.55298632813,46.314453125q0-0.8349609375,0.21240234375-1.72119140625t0.673828125-1.5966796875t1.16455078125-1.1572265625t1.69921875-0.44677734375q0.7470703125,0,1.57470703125,0.25634765625t1.51611328125,0.732421875t1.12060546875,1.16455078125t0.43212890625,1.5380859375q0,1.025390625-0.37353515625,1.9482421875t-1.04736328125,1.64794921875t-1.57470703125,1.142578125t-1.95556640625,0.41748046875q-0.8642578125,0-1.5087890625-0.31494140625t-1.07666015625-0.84228515625t-0.64453125-1.2451171875t-0.21240234375-1.5234375z M170.70630664063,46.28515625q0,0.263671875,0.08056640625,0.7763671875t0.24169921875,1.00341796875t0.41748046875,0.849609375t0.62255859375,0.32958984375q0.7763671875-0.087890625,1.28173828125-0.50537109375t0.8203125-1.01806640625t0.439453125-1.3037109375t0.12451171875-1.3330078125q0-0.8056640625-0.31494140625-1.34765625t-1.03271484375-0.87890625q0,0.029296875,0.029296875,0.029296875t0.029296875-0.029296875l-0.3662109375-0.087890625q-0.146484375-0.05859375-0.35888671875-0.1318359375t-0.41748046875-0.322265625q-0.5712890625,0.205078125-0.88623046875,0.52734375t-0.47607421875,0.78369140625t-0.19775390625,1.10595703125t-0.03662109375,1.552734375z M179.65166796875,45.7431640625q0-1.0546875,0.27099609375-2.11669921875t0.84228515625-1.904296875t1.45751953125-1.36962890625t2.08740234375-0.52734375q0.5126953125,0,1.1279296875,0.12451171875t1.13525390625,0.3955078125t0.87890625,0.703125t0.35888671875,1.06201171875q0,0.3955078125-0.205078125,0.52734375t-0.5419921875,0.1318359375l-0.1025390625-0.146484375t-0.28564453125-0.37353515625t-0.38818359375-0.4833984375t-0.3955078125-0.43212890625q-0.6005859375-0.6005859375-1.1279296875-0.64453125l-0.1171875,0q-0.439453125,0-0.8203125,0.263671875q-0.4248046875,0.322265625-0.75439453125,0.908203125t-0.54931640625,1.2451171875t-0.34423828125,1.3330078125t-0.12451171875,1.11328125q0,0.6005859375,0.13916015625,1.36962890625t0.46875,1.45751953125t0.8349609375,1.1572265625t1.29638671875,0.46875q0.7177734375,0,1.3037109375-0.3515625t1.12060546875-0.78369140625t1.04736328125-0.7763671875t1.0546875-0.34423828125q0.234375,0,0.47607421875,0.05859375t0.24169921875,0.3076171875l0,0.087890625q-0.263671875,0.6884765625-0.8935546875,1.2158203125t-1.41357421875,0.91552734375t-1.6259765625,0.57861328125t-1.50146484375,0.1904296875q-1.23046875,0-2.16064453125-0.40283203125t-1.54541015625-1.10595703125t-0.93017578125-1.69189453125t-0.31494140625-2.16064453125z M192.43491992188,51.9833984375l0.3076171875-0.3662109375q-0.05859375-2.4609375-0.1318359375-4.9072265625t-0.0732421875-4.86328125q0-3.0029296875,0.35888671875-5.80810546875t0.71044921875-5.74951171875q0.029296875-0.17578125,0.16845703125-0.28564453125t0.34423828125-0.18310546875t0.41748046875-0.1025390625t0.38818359375-0.029296875q0.234375,0,0.5859375,0.087890625t0.703125,0.5126953125q0,0.146484375,0.02197265625,0.25634765625t0.02197265625,0.25634765625q0,1.11328125-0.30029296875,2.3876953125t-0.40283203125,2.4462890625q-0.1171875,1.435546875-0.1611328125,2.841796875t-0.0439453125,2.8564453125l0.029296875,1.2890625q0.29296875-0.3662109375,0.8349609375-0.9375t1.171875-1.10595703125t1.259765625-0.91552734375t1.142578125-0.380859375q0.7763671875,0,1.07666015625,0.439453125t0.30029296875,1.1572265625q0,0.6591796875-0.28564453125,1.376953125t-0.7470703125,1.39892578125t-1.04736328125,1.22314453125t-1.1572265625,0.8056640625q0.7763671875,0.966796875,1.58935546875,1.845703125t1.77978515625,1.6552734375l0,0.3369140625q-0.029296875,0.146484375-0.18310546875,0.2197265625t-0.3369140625,0.1171875t-0.35888671875,0.06591796875t-0.29296875,0.02197265625q-0.7177734375,0-1.38427734375-0.4248046875t-1.2451171875-1.0400390625t-1.09130859375-1.3037109375t-0.9375-1.201171875q0.087890625,1.6845703125,0.19775390625,3.36181640625t0.10986328125,3.36181640625q0,0.205078125-0.18310546875,0.34423828125t-0.4248046875,0.21240234375t-0.49072265625,0.1025390625t-0.41015625,0.029296875q-0.8642578125,0-1.22314453125-0.31494140625t-0.60791015625-1.09130859375z M195.43784960938,45.083984375q0.3662109375,0,0.87158203125-0.31494140625t1.04736328125-0.78369140625t1.0107421875-0.98876953125t0.75439453125-0.98876953125t0.28564453125-0.75439453125t-0.3955078125-0.25634765625q-0.146484375,0-0.6005859375,0.4248046875t-1.0107421875,1.0400390625t-1.11328125,1.3330078125t-0.849609375,1.2890625z M203.694734375,36.734375q0-0.205078125,0.439453125-0.3515625t0.99609375-0.24169921875t1.07666015625-0.13916015625t0.71044921875-0.0732421875q0-0.3955078125,0.029296875-0.79833984375t0.1611328125-0.7177734375t0.41748046875-0.50537109375t0.79833984375-0.1904296875q0.4248046875,0,0.64453125,0.1025390625t0.46875,0.4248046875q0.05859375,0.17578125,0.05859375,0.3369140625l0,0.49072265625t-0.029296875,0.50537109375q0.5419921875-0.05859375,1.07666015625-0.13916015625t1.07666015625-0.08056640625q0.3955078125,0,0.5419921875,0.0146484375t0.29296875,0.3515625q0.1171875,0.3369140625-0.28564453125,0.5126953125t-0.966796875,0.263671875t-1.12060546875,0.1318359375t-0.673828125,0.0439453125q-0.17578125,2.51953125-0.35888671875,4.9951171875t-0.18310546875,5.0244140625q0,1.142578125,0.0732421875,2.3583984375t0.41015625,2.2998046875q0.087890625,0.3369140625,0.29296875,0.6298828125t0.205078125,0.6298828125q0,0.205078125-0.1611328125,0.322265625t-0.38818359375,0.19775390625t-0.4541015625,0.09521484375t-0.37353515625,0.0146484375q-0.9228515625,0-1.40625-0.6884765625t-0.69580078125-1.64794921875t-0.22705078125-1.97021484375t-0.0146484375-1.640625q0-1.2890625,0.05126953125-2.63671875t0.12451171875-2.666015625t0.205078125-2.578125t0.3076171875-2.34375q-0.5126953125,0.05859375-1.00341796875,0.1318359375t-1.00341796875,0.0732421875q-0.1171875,0-0.31494140625-0.0146484375t-0.37353515625-0.0732421875t-0.30029296875-0.1611328125t-0.12451171875-0.29296875z M214.89595507813,45.6845703125q0-1.34765625,0.31494140625-2.64404296875t0.53466796875-2.58544921875q0.05859375-0.3369140625,0.46142578125-0.41748046875t0.68115234375-0.08056640625q0.4833984375,0,0.7763671875,0.146484375q0.1171875,0.05859375,0.2197265625,0.1318359375t0.1025390625,0.1904296875q0,1.259765625-0.30029296875,2.4609375t-0.30029296875,2.548828125q0,0.4541015625,0.06591796875,0.85693359375t0.12451171875,0.79833984375l0.087890625,0.4248046875q0,0.1171875,0.0146484375,0.205078125t0.0439453125,0.205078125q0,0.263671875-0.37353515625,0.35888671875t-0.65185546875,0.09521484375q-0.4248046875,0-0.78369140625-0.16845703125t-0.56396484375-0.57861328125l-0.205078125-0.4248046875q-0.17578125-0.3369140625-0.17578125-0.75439453125t-0.0732421875-0.76904296875z M215.83345507813,36.8662109375l0-0.2783203125q0-0.6884765625,0.34423828125-1.23046875t1.03271484375-0.5419921875q0.087890625,0,0.16845703125,0.0146484375t0.16845703125,0.0146484375q0.17578125,0.029296875,0.46142578125,0.13916015625t0.28564453125,0.34423828125l0,0.029296875q-0.05859375,0.1171875-0.0732421875,0.24169921875t-0.0732421875,0.21240234375l0.029296875-0.029296875q-0.17578125,0.4541015625-0.28564453125,0.732421875t-0.24169921875,0.44677734375t-0.32958984375,0.24169921875t-0.56396484375,0.0732421875q-0.05859375,0-0.205078125-0.0146484375t-0.31494140625-0.05859375t-0.28564453125-0.1171875t-0.1171875-0.2197265625z M221.29248828125,51.236328125q0-0.4248046875,0.03662109375-0.8935546875t0.06591796875-0.87890625l0.087890625-2.197265625q0.146484375-2.63671875,0.35888671875-5.185546875t0.35888671875-5.15625q0.087890625-1.435546875,0.1318359375-2.81982421875t0.1318359375-2.81982421875q-0.05859375-0.1171875-0.05859375-0.1611328125q0-0.205078125,0.15380859375-0.322265625t0.35888671875-0.19775390625t0.43212890625-0.10986328125t0.34423828125-0.029296875l0.3369140625,0q0.4541015625,0.05859375,0.6591796875,0.28564453125t0.263671875,0.5419921875t0.029296875,0.673828125t-0.029296875,0.66650390625q0,2.1240234375-0.1025390625,4.32861328125t-0.234375,4.423828125t-0.24169921875,4.4384765625t-0.10986328125,4.38720703125l0,1.025390625q0,0.6884765625-0.38818359375,0.908203125t-1.07666015625,0.2197265625q-0.6005859375,0-1.0546875-0.263671875t-0.4541015625-0.8642578125z M228.01128710938,46.63671875q0-1.025390625,0.22705078125-2.4169921875t0.76904296875-2.63671875t1.42822265625-2.11669921875t2.23388671875-0.87158203125q1.259765625,0,1.8896484375,0.72509765625t0.6298828125,1.95556640625q0,0.8056640625-0.30029296875,1.76513671875t-0.85693359375,1.81640625t-1.318359375,1.42822265625t-1.69921875,0.5712890625l-0.380859375-0.029296875q0,0.3955078125,0.1171875,1.06201171875t0.34423828125,1.32568359375t0.5859375,1.1572265625t0.87158203125,0.498046875q0.7470703125,0,1.435546875-0.6005859375t1.3037109375-1.3330078125t1.142578125-1.3330078125t0.966796875-0.6005859375q0.234375,0,0.4833984375,0.0732421875t0.2783203125,0.41015625q0,0.205078125-0.10986328125,0.3369140625t-0.19775390625,0.29296875q-0.4541015625,0.7763671875-0.98876953125,1.4794921875t-1.20849609375,1.2744140625t-1.47216796875,0.90087890625t-1.76513671875,0.32958984375q-1.259765625,0-2.0947265625-0.44677734375t-1.34765625-1.201171875t-0.73974609375-1.7431640625t-0.22705078125-2.07275390625z M230.63335742188,45.5234375l0.41015625,0.3662109375q0.29296875,0.263671875,0.5859375,0.1171875t0.52734375-0.53466796875t0.43212890625-0.95947265625t0.3515625-1.171875t0.22705078125-1.171875t0.0732421875-0.9521484375l0-0.498046875t-0.0439453125-0.52734375t-0.15380859375-0.41748046875t-0.34423828125-0.21240234375q-0.0732421875-0.0146484375-0.1318359375-0.0146484375q-0.498046875,0-0.849609375,0.6298828125q-0.380859375,0.703125-0.615234375,1.70654296875t-0.3369140625,2.05810546875t-0.1318359375,1.58203125z M240.252546875,42.2568359375q0-0.6005859375,0.3515625-1.03271484375t0.85693359375-0.703125t1.10595703125-0.40283203125t1.11328125-0.1318359375q0.3955078125,0,1.0546875,0.1171875t1.2890625,0.3515625t1.09130859375,0.615234375t0.46142578125,0.8935546875q0,0.234375-0.17578125,0.41748046875t-0.3662109375,0.18310546875q-0.3955078125,0-0.7177734375-0.25634765625t-0.66650390625-0.5419921875t-0.75439453125-0.5419921875t-0.9228515625-0.25634765625t-0.93017578125,0.32958984375t-0.41748046875,0.87158203125q0,0.8935546875,0.6298828125,1.75048828125t1.38427734375,1.8017578125t1.38427734375,1.98486328125t0.6298828125,2.2998046875q0,0.5419921875-0.22705078125,0.91552734375t-0.6005859375,0.60791015625t-0.84228515625,0.35888671875t-0.908203125,0.12451171875q-0.4833984375,0-1.1279296875-0.22705078125t-1.2158203125-0.6005859375t-0.95947265625-0.87158203125t-0.38818359375-1.0400390625q0-0.263671875,0.37353515625-0.3369140625t0.54931640625-0.0732421875q0.087890625,0,0.27099609375,0.05859375t0.35888671875,0.1318359375t0.31494140625,0.1611328125t0.10986328125,0.1904296875q0.146484375,0.17578125,0.44677734375,0.52001953125t0.6005859375,0.556640625t0.52734375,0.15380859375t0.22705078125-0.6591796875q0-1.142578125-0.615234375-2.10205078125t-1.34033203125-1.875t-1.34033203125-1.81640625t-0.615234375-1.92626953125z"/></svg>
